# AST/ASF file generated using VICON BodyLanguage
# -----------------------------------------------
:version 1.10
:name VICON
:units
  mass 1.0
  length 0.45
  angle deg
:documentation
   .ast/.asf automatically generated from VICON data using
   VICON BodyBuilder and BodyLanguage model FoxedUp or BRILLIANT.MOD
:root
   order TX TY TZ RX RY RZ
   axis XYZ
   position 0 0 0  
   orientation 0 0 0 
:bonedata
  begin
     id 1 
     name lhipjoint
     direction 0.630082 -0.636569 0.44472 
     length 2.82754 
     axis 0 0 0  XYZ
  end
  begin
     id 2 
     name lfemur
     direction 0.34202 -0.939693 0  
     length 7.26371  
     axis 0 0 20  XYZ
    dof rx ry rz
    limits (-160.0 20.0)
           (-70.0 70.0)
           (-60.0 70.0)
  end
  begin
     id 3 
     name ltibia
     direction 0.34202 -0.939693 0   
     length 7.88616   
     axis 0 0 20   XYZ
    dof rx
    limits (-10.0 170.0)
  end
  begin
     id 4 
     name lfoot
     direction 0.0603448 -0.165796 0.984312   
     length 1.77861   
     axis -90 7.62852e-016 20   XYZ
    dof rx rz
    limits (-45.0 90.0)
           (-70.0 20.0)
  end
  begin
     id 5 
     name ltoes
     direction 1.53577e-011 -4.21876e-011 1   
     length 0.902235   
     axis -90 7.62852e-016 20   XYZ
    dof rx
    limits (-90.0 20.0)
  end
  begin
     id 6 
     name rhipjoint
     direction -0.656778 -0.61817 0.431866   
     length 2.9117  
     axis 0 0 0  XYZ 
  end
  begin
     id 7 
     name rfemur
     direction -0.34202 -0.939693 0   
     length 6.81603   
     axis 0 0 -20   XYZ
    dof rx ry rz
    limits (-160.0 20.0)
           (-70.0 70.0)
           (-70.0 60.0)
  end
  begin
     id 8 
     name rtibia
     direction -0.34202 -0.939693 0   
     length 8.05997   
     axis 0 0 -20   XYZ
    dof rx
    limits (-10.0 170.0)
 end
 begin
     id 9 
     name rfoot
     direction -0.0862404 -0.236944 0.967688   
     length 1.84899  
     axis -90 -7.62852e-016 -20   XYZ
    dof rx rz
    limits (-45.0 90.0)
           (-20.0 70.0)
  end
  begin
     id 10 
     name rtoes
     direction -1.53561e-011 -4.21798e-011 1   
     length 0.931579   
     axis -90 -7.62852e-016 -20   XYZ
    dof rx
    limits (-90.0 20.0)
  end
  begin
     id 11 
     name lowerback
     direction -0.0110203 0.991769 -0.127564   
     length 2.05686   
     axis 0 0 0   XYZ
    dof rx ry rz
    limits (-20.0 45.0)
           (-30.0 30.0)
           (-30.0 30.0)
  end
  begin
     id 12 
     name upperback
     direction 0.0109719 0.99993 -0.00432479   
     length 2.06234   
     axis 0 0 0   XYZ
    dof rx ry rz
    limits (-20.0 45.0)
           (-30.0 30.0)
           (-30.0 30.0)
  end
  begin
     id 13 
     name thorax
     direction 0.0173308 0.998351 0.0547306   
     length 2.09856   
     axis 0 0 0   XYZ
    dof rx ry rz
    limits (-20.0 45.0)
           (-30.0 30.0)
           (-30.0 30.0)
  end
  begin
     id 14 
     name lowerneck
     direction -0.0311736 0.989033 0.144366   
     length 1.98151   
     axis 0 0 0   XYZ
    dof rx ry rz
    limits (-20.0 45.0)
           (-30.0 30.0)
           (-30.0 30.0)
  end
  begin
     id 15 
     name upperneck
     direction 0.0421057 0.975772 -0.214698   
     length 2.01457   
     axis 0 0 0   XYZ
    dof rx ry rz
    limits (-20.0 45.0)
           (-30.0 30.0)
           (-30.0 30.0)
  end
  begin
     id 16
     name head
     direction 0.0136911 0.995958 -0.0887718  
     length 2.03562  
     axis 0 0 0   XYZ
    dof rx ry rz
    limits (-20.0 45.0)
           (-30.0 30.0)
           (-30.0 30.0)
  end
  begin
     id 17 
     name lclavicle
     direction 0.915335 0.396201 0.0720134  
     length 4.16217  
     axis 0 0 0   XYZ
    dof ry rz
    limits (-20.0 10.0)
           (0.0 20.0)
  end
  begin
     id 18 
     name lhumerus
     direction 1 -4.48965e-011 6.383e-018   
     length 4.93042   
     axis -180 -30 -90   XYZ
    dof rx ry rz
    limits (-60.0 90.0)
           (-90.0 90.0)
           (-90.0 90.0)
  end
  begin
     id 19
     name lradius
     direction 1 -4.48972e-011 8.8689e-027   
     length 3.68177   
     axis -180 -30 -90   XYZ
    dof rx
    limits (-10.0 170.0)
  end
  begin
     id 20
     name lwrist
     direction 1 -4.48953e-011 1.17971e-026   
     length 1.84089   
     axis -7.69454e-015 90 90   XYZ
    dof ry
    limits (-180.0 0.0)
 end
  begin
     id 21 
     name lhand
     direction 1 -4.49027e-011 2.35802e-026   
     length 0.721479   
     axis -1.50533e-014 90 90   XYZ
    dof rx rz
    limits (-90.0 90.0)
           (-45.0 45.0)
  end
  begin
     id 22 
     name lfingers
     direction 1 -4.48915e-011 4.72027e-026   
     length 0.581675   
     axis -3.01059e-014 90 90   XYZ
    dof rx
    limits (0.0 90.0)
  end
  begin
     id 23
     name lthumb
     direction 0.707107 -6.34948e-011 0.707107   
     length 0.835172   
     axis -90 45 -5.12164e-014   XYZ
    dof rx rz
    limits (-45.0 45.0)
           (-45.0 45.0)
  end
  begin
     id 24 
     name rclavicle
     direction -0.882781 0.469197 0.0234974   
     length 3.95647  
     axis 0 0 0   XYZ 
    dof ry rz
    limits (-10.0 20.0)
           (-20.0 0.0)
  end
  begin
     id 25 
     name rhumerus
     direction -1 -4.48965e-011 -1.54906e-018  
     length 5.07905   
     axis -180 30 90   XYZ
    dof rx ry rz
    limits (-90.0 60.0)
           (-90.0 90.0)
           (-90.0 90.0)
  end
  begin
     id 26 
     name rradius
     direction -1 -4.48972e-011 5.47489e-027   
     length 3.54394   
     axis -180 30 90   XYZ
    dof rx
    limits (-10.0 170.0)
  end
  begin
     id 27 
     name rwrist
     direction -1 -4.48955e-011 1.17969e-026   
     length 1.77197   
     axis -7.69454e-015 -90 -90   XYZ
    dof ry
    limits (-180.0 0.0)
  end
  begin
     id 28
     name rhand
     direction -1 -4.48982e-011 2.35888e-026   
     length 0.681156   
     axis -1.50533e-014 -90 -90   XYZ
    dof rx rz
    limits (-90.0 90.0)
           (-45.0 45.0)
  end
  begin
     id 29
     name rfingers
     direction -1 -4.48955e-011 4.71877e-026   
     length 0.549165   
     axis -3.01059e-014 -90 -90   XYZ
    dof rx
    limits (0.0 90.0)
  end
  begin
     id 30
     name rthumb
     direction -0.707107 -6.3491e-011 0.707107   
     length 0.788495   
     axis -90 -45 5.12164e-014   XYZ
    dof rx rz
    limits (-45.0 45.0)
           (-45.0 45.0)
  end
:hierarchy
  begin
    root lhipjoint rhipjoint lowerback
    lhipjoint lfemur
    lfemur ltibia
    ltibia lfoot
    lfoot ltoes
    rhipjoint rfemur
    rfemur rtibia
    rtibia rfoot
    rfoot rtoes
    lowerback upperback
    upperback thorax
    thorax lowerneck lclavicle rclavicle
    lowerneck upperneck
    upperneck head
    lclavicle lhumerus
    lhumerus lradius
    lradius lwrist
    lwrist lhand lthumb
    lhand lfingers
    rclavicle rhumerus
    rhumerus rradius
    rradius rwrist
    rwrist rhand rthumb
    rhand rfingers
  end

#!OML:ASF H:\Bending\Project 1\Capture day 1\Session 1\Subject.ASF
:FULLY-SPECIFIED
:DEGREES
325
root -10.7001 18.0141 -16.0435 208.31 86.7038 202.773
lowerback 6.28578 0.366731 0.0353989
upperback -2.40542 0.649167 2.2867
thorax -6.06396 0.377807 2.29044
lowerneck -22.3499 -3.68125 -4.81006
upperneck 32.8229 -3.69647 2.22902
head 15.436 -1.60269 1.11159
rclavicle -5.34234e-015 -1.47101e-014
rhumerus -48.8068 -2.6049 -76.8724
rradius 41.5384
rwrist 15.9508
rhand -18.592 -19.5964
rfingers 7.12502
rthumb 7.69892 -49.4363
lclavicle -5.34234e-015 -1.47101e-014
lhumerus -39.9641 -0.430647 95.0233
lradius 44.5844
lwrist 23.5385
lhand -32.3686 12.2945
lfingers 7.12502
lthumb -5.60462 42.2004
rfemur 3.80285 -7.77553 15.5655
rtibia 7.95139e-015
rfoot -10.1135 -7.10189
rtoes 3.8514
lfemur -12.1747 -28.6228 -10.7883
ltibia 22.1897
lfoot -30.3206 25.5652
ltoes -17.5695
326
root -10.7114 18.013 -16.0455 208.961 86.7627 203.452
lowerback 6.23106 0.364698 0.0547334
upperback -2.42924 0.649375 2.3021
thorax -6.05775 0.37786 2.2958
lowerneck -22.3321 -3.66811 -4.87721
upperneck 32.8491 -3.66271 2.26615
head 15.4459 -1.59111 1.14618
rclavicle 4.02539e-015 -1.55052e-014
rhumerus -48.8218 -2.47453 -77.0139
rradius 41.4664
rwrist 15.9626
rhand -18.2609 -19.126
rfingers 7.12502
rthumb 8.01849 -48.9539
lclavicle 4.02539e-015 -1.55052e-014
lhumerus -39.9114 -0.0214121 94.7035
lradius 43.6362
lwrist 23.3731
lhand -32.0531 12.6037
lfingers 7.12502
lthumb -5.29996 42.5175
rfemur 3.7859 -7.70334 15.5634
rtibia 2.22639e-014
rfoot -10.1188 -7.06518
rtoes 3.96269
lfemur -12.1883 -28.8261 -10.7832
ltibia 22.2466
lfoot -30.528 25.7161
ltoes -17.2541
327
root -10.7222 18.0112 -16.0476 209.638 86.8214 204.156
lowerback 6.17834 0.357629 0.0798716
upperback -2.44644 0.64284 2.31313
thorax -6.04529 0.374143 2.29404
lowerneck -22.3222 -3.65019 -4.94389
upperneck 32.8555 -3.61776 2.28959
head 15.4471 -1.5774 1.17669
rclavicle 3.80176e-015 -7.55382e-015
rhumerus -48.7909 -2.43023 -77.0765
rradius 41.2976
rwrist 16.0702
rhand -17.9932 -18.8237
rfingers 7.12502
rthumb 8.27691 -48.6416
lclavicle 3.80176e-015 -7.55382e-015
lhumerus -39.8714 0.340277 94.3732
lradius 42.6752
lwrist 23.1884
lhand -31.762 12.918
lfingers 7.12502
lthumb -5.01897 42.8386
rfemur 3.76535 -7.63123 15.5687
rtibia 1.43125e-014
rfoot -10.0849 -7.05192
rtoes 3.65991
lfemur -12.2112 -29.0519 -10.779
ltibia 22.3229
lfoot -30.7667 25.88
ltoes -16.9678
328
root -10.7329 18.0087 -16.0497 210.387 86.8798 204.926
lowerback 6.12606 0.351584 0.118256
upperback -2.45328 0.637491 2.31037
thorax -6.02183 0.369965 2.27018
lowerneck -22.3316 -3.62895 -4.98094
upperneck 32.8403 -3.56962 2.28349
head 15.4407 -1.56354 1.1896
rclavicle -5.96354e-016 -2.38542e-014
rhumerus -48.7268 -2.49078 -77.0731
rradius 41.0615
rwrist 16.2117
rhand -17.8292 -18.7301
rfingers 7.12502
rthumb 8.43517 -48.5417
lclavicle -5.96354e-016 -2.38542e-014
lhumerus -39.8287 0.646321 94.0329
lradius 41.7033
lwrist 22.9559
lhand -31.5365 13.2051
lfingers 7.12502
lthumb -4.80117 43.1307
rfemur 3.73923 -7.55833 15.5832
rtibia -9.54166e-015
rfoot -10.0229 -7.06462
rtoes 3.07449
lfemur -12.2473 -29.2763 -10.7724
ltibia 22.4176
lfoot -31.0197 26.039
ltoes -16.7223
329
root -10.7438 18.0058 -16.052 211.165 86.932 205.723
lowerback 6.07502 0.350781 0.170358
upperback -2.44682 0.63868 2.29064
thorax -5.98492 0.367842 2.22005
lowerneck -22.3663 -3.60856 -4.97241
upperneck 32.8082 -3.52828 2.24156
head 15.4301 -1.55247 1.17753
rclavicle 4.24902e-015 -3.97569e-016
rhumerus -48.656 -2.63394 -77.0297
rradius 40.8028
rwrist 16.3039
rhand -17.7682 -18.7986
rfingers 7.12502
rthumb 8.49401 -48.6078
lclavicle 4.24902e-015 -3.97569e-016
lhumerus -39.7642 0.938132 93.6731
lradius 40.7075
lwrist 22.6126
lhand -31.3935 13.4214
lfingers 7.12502
lthumb -4.6631 43.3501
rfemur 3.71273 -7.49053 15.6033
rtibia 0
rfoot -9.95361 -7.09574
rtoes 2.42362
lfemur -12.2954 -29.4682 -10.7636
ltibia 22.5264
lfoot -31.2529 26.1649
ltoes -16.5212
330
root -10.7547 18.0028 -16.0546 211.855 86.9689 206.434
lowerback 6.02799 0.355526 0.2299
upperback -2.42682 0.646625 2.2585
thorax -5.93602 0.368287 2.15195
lowerneck -22.4223 -3.59399 -4.92471
upperneck 32.7682 -3.50149 2.17266
head 15.4196 -1.5467 1.14403
rclavicle -1.16538e-014 -1.23246e-014
rhumerus -48.6067 -2.80234 -76.9762
rradius 40.5652
rwrist 16.2693
rhand -17.7768 -18.9316
rfingers 7.12502
rthumb 8.48574 -48.7411
lclavicle -1.16538e-014 -1.23246e-014
lhumerus -39.6633 1.28991 93.277
lradius 39.6691
lwrist 22.0909
lhand -31.317 13.5264
lfingers 7.12502
lthumb -4.58925 43.4567
rfemur 3.69482 -7.43801 15.6229
rtibia 2.22639e-014
rfoot -9.89873 -7.13324
rtoes 1.90412
lfemur -12.3507 -29.6057 -10.7548
ltibia 22.6422
lfoot -31.4334 26.2328
ltoes -16.3444
331
root -10.7656 17.9999 -16.0578 212.347 86.9839 206.953
lowerback 5.98786 0.362972 0.287683
upperback -2.39674 0.657584 2.22364
thorax -5.88054 0.370153 2.08166
lowerneck -22.4862 -3.58915 -4.86655
upperneck 32.7309 -3.49244 2.10177
head 15.4126 -1.54726 1.10435
rclavicle 8.72168e-015 -3.02153e-014
rhumerus -48.5971 -2.92811 -76.9359
rradius 40.3743
rwrist 16.0646
rhand -17.8125 -19.0381
rfingers 7.12502
rthumb 8.45132 -48.849
lclavicle 8.72168e-015 -3.02153e-014
lhumerus -39.5261 1.76648 92.8307
lradius 38.5811
lwrist 21.3648
lhand -31.2678 13.4974
lfingers 7.12502
lthumb -4.54169 43.4287
rfemur 3.69187 -7.40882 15.6368
rtibia 1.27222e-014
rfoot -9.87081 -7.16733
rtoes 1.60542
lfemur -12.4071 -29.6861 -10.7478
ltibia 22.7569
lfoot -31.5463 26.2355
ltoes -16.1622
332
root -10.7764 17.9972 -16.0616 212.633 86.978 207.274
lowerback 5.95586 0.370054 0.336508
upperback -2.36315 0.66774 2.19529
thorax -5.82621 0.372169 2.02334
lowerneck -22.5388 -3.59559 -4.83775
upperneck 32.7025 -3.50023 2.06409
head 15.4098 -1.55339 1.08075
rclavicle 9.93923e-017 1.31198e-014
rhumerus -48.6281 -2.96596 -76.9188
rradius 40.2276
rwrist 15.6996
rhand -17.848 -19.0807
rfingers 7.12502
rthumb 8.417 -48.893
lclavicle 9.93923e-017 1.31198e-014
lhumerus -39.3717 2.37034 92.3382
lradius 37.4625
lwrist 20.4923
lhand -31.208 13.3466
lfingers 7.12502
lthumb -4.48403 43.2792
rfemur 3.70224 -7.40202 15.6445
rtibia 6.36111e-015
rfoot -9.86797 -7.19475
rtoes 1.48748
lfemur -12.4587 -29.7254 -10.7425
ltibia 22.8618
lfoot -31.6032 26.188
ltoes -15.9426
333
root -10.7872 17.9951 -16.0658 212.821 86.9623 207.501
lowerback 5.9308 0.376306 0.37355
upperback -2.33383 0.67671 2.17698
thorax -5.7806 0.374411 1.98231
lowerneck -22.5622 -3.61231 -4.87216
upperneck 32.682 -3.52201 2.09217
head 15.4081 -1.56331 1.09361
rclavicle 1.24986e-014 1.66979e-014
rhumerus -48.684 -2.91531 -76.9182
rradius 40.0958
rwrist 15.2366
rhand -17.8799 -19.0797
rfingers 7.12502
rthumb 8.38627 -48.8932
lclavicle 1.24986e-014 1.66979e-014
lhumerus -39.2333 3.01478 91.831
lradius 36.3605
lwrist 19.6228
lhand -31.1252 13.1243
lfingers 7.12502
lthumb -4.40404 43.0585
rfemur 3.71493 -7.40577 15.6487
rtibia 9.54166e-015
rfoot -9.8752 -7.21873
rtoes 1.42614
lfemur -12.5019 -29.7456 -10.737
ltibia 22.9475
lfoot -31.633 26.1223
ltoes -15.6782
334
root -10.798 17.9938 -16.07 213.069 86.9537 207.782
lowerback 5.91006 0.384672 0.40098
upperback -2.31506 0.688475 2.16447
thorax -5.74885 0.378687 1.95251
lowerneck -22.5464 -3.63689 -4.9828
upperneck 32.6614 -3.55563 2.20276
head 15.4023 -1.57543 1.15268
rclavicle 7.52897e-015 1.47101e-014
rhumerus -48.7392 -2.8221 -76.9153
rradius 39.9352
rwrist 14.7728
rhand -17.9171 -19.08
rfingers 7.12502
rthumb 8.35034 -48.895
lclavicle 7.52897e-015 1.47101e-014
lhumerus -39.1429 3.54358 91.3647
lradius 35.3345
lwrist 18.9552
lhand -31.0423 12.9078
lfingers 7.12502
lthumb -4.32398 42.8436
rfemur 3.7142 -7.40227 15.6528
rtibia 3.18055e-015
rfoot -9.87194 -7.24522
rtoes 1.29657
lfemur -12.5351 -29.761 -10.73
ltibia 23.0056
lfoot -31.663 26.0726
ltoes -15.3972
335
root -10.8092 17.9937 -16.0738 213.471 86.967 208.206
lowerback 5.8909 0.399326 0.422672
upperback -2.30966 0.708331 2.14848
thorax -5.73234 0.387227 1.92149
lowerneck -22.4935 -3.66638 -5.1544
upperneck 32.6314 -3.59975 2.38563
head 15.3878 -1.589 1.25109
rclavicle 8.32411e-015 -3.18055e-015
rhumerus -48.7692 -2.7569 -76.8856
rradius 39.7056
rwrist 14.4093
rhand -17.9641 -19.1107
rfingers 7.12502
rthumb 8.30502 -48.9274
lclavicle 8.32411e-015 -3.18055e-015
lhumerus -39.1165 3.80181 90.9981
lradius 34.4314
lwrist 18.6556
lhand -31.0085 12.7728
lfingers 7.12502
lthumb -4.29135 42.7093
rfemur 3.6871 -7.37716 15.6567
rtibia -4.77083e-015
rfoot -9.84207 -7.27735
rtoes 1.04498
lfemur -12.5593 -29.7728 -10.7227
ltibia 23.0302
lfoot -31.7053 26.0601
ltoes -15.1476
